<svg xmlns="http://www.w3.org/2000/svg" xmlns:xlink="http://www.w3.org/1999/xlink" width="500" zoomAndPan="magnify" viewBox="0 0 375 374.999991" height="500" preserveAspectRatio="xMidYMid meet" version="1.0"><defs><clipPath id="7bf0162277"><path d="M 42.398438 20 L 204 20 L 204 375 L 42.398438 375 Z M 42.398438 20 " clip-rule="nonzero"/></clipPath></defs><rect x="-37.5" width="450" fill="#ffffff" y="-37.499999" height="449.999989" fill-opacity="1"/><rect x="-37.5" width="450" fill="#ffffff" y="-37.499999" height="449.999989" fill-opacity="1"/><rect x="-37.5" width="450" fill="#ffffff" y="-37.499999" height="449.999989" fill-opacity="1"/><g clip-path="url(#7bf0162277)"><path fill="#ff00ff" d="M 77.425781 20.300781 C 71.585938 29.382812 73.207031 40.414062 75.804688 55.335938 C 77.101562 61.5 78.398438 67.988281 79.695312 74.152344 C 80.667969 78.371094 81.640625 82.914062 82.289062 87.453125 C 83.261719 93.292969 84.882812 101.402344 83.261719 107.242188 C 82.289062 111.136719 80.019531 114.378906 77.425781 117.625 C 72.882812 123.140625 67.046875 128.332031 61.859375 133.195312 C 58.9375 135.46875 56.34375 139.035156 56.34375 142.605469 C 56.34375 147.472656 66.398438 152.664062 69.964844 154.933594 C 71.585938 155.90625 73.53125 156.878906 75.15625 158.175781 C 75.480469 158.5 76.128906 158.828125 76.777344 159.152344 C 76.128906 160.125 75.480469 161.746094 74.832031 162.394531 C 72.882812 165.964844 68.992188 172.128906 71.585938 176.019531 C 73.53125 179.265625 80.667969 181.535156 84.882812 182.507812 C 80.992188 187.699219 77.75 195.160156 83.910156 200.351562 C 87.476562 203.273438 91.695312 205.542969 95.910156 207.8125 C 94.9375 211.707031 93.964844 215.925781 93.640625 220.140625 C 92.992188 225.332031 92.667969 234.089844 97.207031 237.660156 C 99.800781 239.605469 103.042969 239.605469 106.289062 238.632812 C 114.394531 236.039062 122.503906 233.441406 130.609375 231.496094 C 135.800781 230.199219 140.988281 229.226562 146.175781 228.578125 C 149.09375 228.253906 152.664062 228.902344 155.257812 230.523438 C 155.257812 231.820312 154.933594 233.441406 154.933594 234.742188 C 154.609375 238.957031 153.960938 243.5 153.3125 247.71875 C 151.042969 260.695312 147.472656 273.671875 141.960938 285.675781 C 117.636719 338.230469 89.421875 343.097656 42.398438 342.773438 C 88.449219 350.234375 121.207031 340.5 145.851562 298.328125 C 154.285156 284.050781 160.769531 268.15625 165.632812 252.582031 C 166.933594 248.367188 172.445312 230.199219 171.796875 226.304688 L 171.796875 225.980469 L 171.472656 225.65625 C 167.582031 219.816406 151.691406 220.140625 145.203125 220.789062 C 139.691406 221.113281 133.851562 222.414062 128.339844 223.710938 C 119.90625 225.65625 111.476562 228.253906 103.367188 231.171875 C 103.042969 231.171875 102.394531 231.496094 102.070312 231.171875 C 100.449219 230.199219 101.421875 221.761719 101.746094 220.140625 C 102.394531 215.925781 103.367188 211.707031 104.664062 207.8125 C 105.316406 204.894531 104.015625 203.273438 101.421875 202.296875 C 97.207031 200.351562 92.667969 197.757812 88.773438 194.835938 C 87.476562 193.863281 90.722656 188.996094 91.695312 188.023438 C 92.667969 187.050781 93.316406 186.078125 94.289062 185.105469 C 94.613281 184.78125 94.613281 184.78125 94.9375 184.457031 C 96.558594 182.507812 96.234375 179.914062 94.289062 178.292969 C 92.992188 177.316406 89.746094 176.34375 87.800781 176.019531 C 86.179688 175.695312 80.992188 174.074219 79.046875 173.101562 C 79.695312 171.480469 81.316406 168.558594 81.964844 167.585938 C 83.910156 164.015625 94.289062 156.554688 93.640625 152.664062 C 93.640625 152.011719 93.316406 151.363281 92.667969 150.714844 C 91.046875 149.09375 87.476562 150.390625 85.207031 150.714844 C 80.992188 151.039062 77.101562 150.066406 73.53125 148.445312 C 71.585938 147.472656 66.398438 144.226562 64.128906 142.605469 C 64.453125 141.632812 65.75 140.660156 66.074219 140.335938 L 66.398438 140.335938 L 66.722656 140.011719 C 72.882812 134.171875 79.371094 128.65625 85.207031 122.492188 C 89.097656 118.597656 92.667969 114.378906 94.289062 109.191406 C 96.558594 103.027344 95.910156 96.214844 94.9375 89.726562 C 136.125 158.5 222.710938 248.042969 186.390625 375.214844 C 187.363281 372.617188 188.660156 369.699219 189.632812 367.101562 C 189.957031 366.453125 190.28125 365.480469 190.605469 364.832031 C 191.253906 362.886719 191.902344 360.941406 192.550781 358.667969 C 192.875 358.019531 193.199219 357.046875 193.199219 356.398438 C 194.171875 353.800781 194.820312 351.207031 195.46875 348.613281 C 195.46875 348.289062 195.46875 348.289062 195.792969 347.960938 C 196.441406 345.691406 197.09375 343.097656 197.742188 340.824219 C 198.066406 340.175781 198.066406 339.203125 198.390625 338.554688 C 198.714844 336.609375 199.363281 334.660156 199.6875 332.714844 C 199.6875 332.066406 200.011719 331.417969 200.011719 330.769531 C 200.660156 328.171875 200.984375 325.578125 201.308594 323.308594 C 201.308594 322.984375 201.308594 322.65625 201.308594 322.332031 C 201.632812 320.0625 201.957031 317.792969 202.28125 315.84375 C 202.28125 315.195312 202.605469 314.546875 202.605469 313.898438 C 202.929688 311.953125 202.929688 310.003906 203.253906 308.058594 C 203.253906 307.410156 203.253906 307.085938 203.253906 306.4375 C 203.578125 304.167969 203.578125 301.570312 203.578125 299.300781 C 203.578125 298.976562 203.578125 298.652344 203.578125 298.328125 C 203.578125 296.378906 203.578125 294.109375 203.578125 292.164062 C 203.578125 291.515625 203.578125 290.863281 203.578125 290.214844 C 203.578125 288.269531 203.578125 286.324219 203.578125 284.699219 C 203.578125 284.375 203.578125 283.726562 203.578125 283.402344 C 203.578125 281.132812 203.253906 278.863281 203.253906 276.589844 C 203.253906 276.265625 203.253906 275.941406 203.253906 275.617188 C 202.929688 273.671875 202.929688 271.722656 202.605469 269.777344 C 202.605469 269.128906 202.605469 268.804688 202.28125 268.15625 C 201.957031 266.210938 201.632812 264.261719 201.308594 262.316406 C 201.308594 261.992188 201.308594 261.667969 201.308594 261.34375 C 200.984375 259.070312 200.660156 256.800781 200.011719 254.53125 C 200.011719 254.207031 200.011719 253.882812 199.6875 253.558594 C 199.363281 251.609375 198.714844 249.664062 198.390625 248.042969 C 198.390625 247.71875 198.066406 247.066406 198.066406 246.742188 C 197.417969 244.796875 197.09375 242.851562 196.441406 240.578125 L 196.441406 240.253906 C 195.792969 237.984375 195.144531 236.039062 194.496094 233.765625 L 194.171875 233.117188 C 193.523438 231.171875 192.875 229.550781 192.226562 227.601562 L 191.902344 226.628906 C 190.28125 222.414062 188.660156 218.519531 187.039062 214.300781 L 186.714844 213.652344 C 186.066406 211.707031 185.09375 210.085938 184.121094 208.136719 L 183.796875 207.488281 C 181.851562 203.597656 179.902344 199.378906 177.957031 195.808594 L 177.632812 195.484375 C 176.660156 193.539062 175.6875 191.917969 174.714844 189.96875 L 174.390625 189.644531 C 149.417969 145.199219 114.070312 109.191406 92.667969 78.046875 C 79.046875 57.933594 71.261719 39.765625 75.480469 22.246094 Z M 77.425781 20.300781 " fill-opacity="1" fill-rule="evenodd"/></g><path fill="#ff99cc" d="M 288.21875 277.5625 C 331.027344 152.339844 196.441406 46.578125 187.039062 64.421875 C 185.09375 72.207031 208.117188 121.84375 214.28125 129.953125 C 200.660156 117.625 116.015625 3.429688 102.070312 23.21875 C 64.777344 75.773438 318.054688 199.703125 190.929688 374.566406 C 271.355469 178.292969 48.238281 90.375 83.261719 13.160156 C 97.855469 -19.28125 162.066406 46.902344 181.199219 68.636719 C 173.09375 48.847656 197.09375 52.742188 217.199219 64.421875 C 286.921875 104.648438 332.648438 199.378906 288.871094 277.5625 Z M 180.550781 68.636719 C 175.6875 64.421875 180.550781 68.636719 180.550781 68.636719 Z M 180.550781 68.636719 " fill-opacity="1" fill-rule="evenodd"/></svg>